<svg xmlns="http://www.w3.org/2000/svg" viewBox="0 0 512 512" id="chef">
  <path fill="#f9f7f8" d="M462.811 501.999V432.49a100 100 0 0 0-73.652-96.466l-60.06-16.405L256 301.546l-73.1 18.073-60.06 16.405A100 100 0 0 0 49.19 432.49V502a10 10 0 0 0 10 10H452.81a10 10 0 0 0 10-10Z"></path>
  <path fill="#ededed" d="M391.396 511.999a3.5 3.5 0 0 1-3.5-3.5v-73.174a3.5 3.5 0 0 1 7 0V508.5a3.5 3.5 0 0 1-3.5 3.5ZM329.101 319.613 256 353.197l-73.101-33.584V274.1l73.101 35 73.101-35v45.513z"></path>
  <path fill="#f9f7f8" d="m256 309.1 73.101-35v45.513L256 353.197V309.1z"></path>
  <path fill="#eaeaea" d="M462.811 501.999V432.49a100 100 0 0 0-73.652-96.466l-60.06-16.405-.008-.002-127.353 58.51a15 15 0 0 0-8.738 13.63V512h259.811a10 10 0 0 0 10-10Z"></path>
  <circle cx="235" cy="399.999" r="10.5" fill="#ff7b4f"></circle>
  <circle cx="291" cy="399.999" r="10.5" fill="#ff7b4f"></circle>
  <circle cx="235" cy="448.999" r="10.5" fill="#ff7b4f"></circle>
  <circle cx="291" cy="448.999" r="10.5" fill="#ff7b4f"></circle>
  <circle cx="235" cy="497.999" r="10.5" fill="#ff7b4f"></circle>
  <circle cx="291" cy="497.999" r="10.5" fill="#ff7b4f"></circle>
  <path fill="#e58a7b" d="M336.51 175.467h2.853a27.435 27.435 0 0 1 27.435 27.435 27.435 27.435 0 0 1-27.435 27.435h-2.852v-54.87Z"></path>
  <path fill="#f9beac" d="M336.51 230.337v11.58a84.953 84.953 0 0 1-24.889 60.08 45.784 45.784 0 0 1-32.37 13.405h-45.683a45.784 45.784 0 0 1-32.37-13.406 84.953 84.953 0 0 1-24.89-60.078V178.82l14.12-7h132.197l13.886 7Z"></path>
  <path fill="#343c4a" d="M336.51 216.083h-4a10 10 0 0 1-10-10v-45h14zm-160.201 0h4a10 10 0 0 0 10-10v-38h-14zm111.486 51.4c1.988-.482 14.612-3.738 22.167-15.496a33.07 33.07 0 0 0 1.564-2.707 2.998 2.998 0 0 0-3.69-4.213 20.933 20.933 0 0 1-10.58 1.384c-6.505-.943-8.944-4.903-14.964-7.132-5.064-1.876-13.17-2.713-25.89 3.162-12.721-5.875-20.826-5.038-25.89-3.162-6.02 2.23-8.46 6.189-14.965 7.132a20.94 20.94 0 0 1-10.596-1.39 2.998 2.998 0 0 0-3.687 4.218c.46.885.982 1.791 1.577 2.708 8.071 12.415 22.145 15.2 24.352 15.602 15.5 2.82 27.146-4.966 29.209-6.397 1.808 1.294 14.843 10.294 31.393 6.29z"></path>
  <path fill="#e58a7b" d="M269.114 224.814v6.743a12.701 12.701 0 0 1-12.701 12.7h-.007a12.701 12.701 0 0 1-12.7-12.7v-6.743a3 3 0 0 1 3-3h19.408a3 3 0 0 1 3 3ZM176.309 230.337h-2.853a27.435 27.435 0 0 1-27.435-27.435 27.435 27.435 0 0 1 27.435-27.435h2.853v54.87Z"></path>
  <path fill="#f9f7f8" d="M371.816 66.672a49.315 49.315 0 0 0-91.361-25.63c-4.276 6.965-44.721 6.694-49.126-.348a49.316 49.316 0 1 0-57.751 72.795 4.006 4.006 0 0 1 2.73 3.786v33.545H336.51V116.99a4.005 4.005 0 0 1 2.668-3.764 49.324 49.324 0 0 0 32.638-46.555Z"></path>
  <path fill="#ff7b4f" d="M176.309 150.82h160.202v21H176.309z"></path>
  <path fill="#ededed" d="M308.637 19.481a49.413 49.413 0 0 0-28.182 21.562c-4.276 6.964-44.721 6.693-49.126-.35a49.544 49.544 0 0 0-8.487-10.201 54.43 54.43 0 0 0-7.54 27.705h95.397a28.627 28.627 0 0 0 6.684-16.403c.81-12.598-7.419-21.002-8.746-22.313Z"></path>
  <path fill="#ededed" d="M296.698 58.197a54.425 54.425 0 0 0-7.54-27.705 49.544 49.544 0 0 0-8.703 10.55c-4.276 6.965-44.721 6.694-49.126-.348a49.409 49.409 0 0 0-27.966-21.213c-1.029.841-10.68 9.007-9.868 21.926a26.352 26.352 0 0 0 7.807 16.79Z"></path>
  <path fill="#f9f7f8" d="M201.302 58.197a54.698 54.698 0 1 1 109.396 0Z"></path>
  <path d="M291 484a14 14 0 1 0 14 14 14.016 14.016 0 0 0-14-14Zm0 21a7 7 0 1 1 7-7 7.008 7.008 0 0 1-7 7Zm-21.87-223.262a29.89 29.89 0 0 1-12.63 2.863h-.09a29.893 29.893 0 0 1-12.722-2.863 3.5 3.5 0 0 0-2.998 6.326 36.945 36.945 0 0 0 15.721 3.537h.11a36.952 36.952 0 0 0 15.607-3.537 3.5 3.5 0 0 0-2.998-6.326Zm37.446-39.935a17.434 17.434 0 0 1-8.817 1.185c-3.025-.439-4.924-1.677-7.328-3.246a33.376 33.376 0 0 0-6.923-3.704 27.33 27.33 0 0 0-11.174-1.54 16.167 16.167 0 0 0 .28-2.94v-5.53a3.5 3.5 0 0 0-7 0v5.53a9.135 9.135 0 0 1-1.034 4.22 56.753 56.753 0 0 0-8.178 2.869 56.782 56.782 0 0 0-8.16-2.864 9.136 9.136 0 0 1-1.037-4.225v-5.53a3.5 3.5 0 0 0-7 0v5.53a16.189 16.189 0 0 0 .281 2.942 27.344 27.344 0 0 0-11.19 1.538 33.376 33.376 0 0 0-6.923 3.704c-2.404 1.569-4.304 2.807-7.328 3.246a17.448 17.448 0 0 1-8.831-1.19 6.394 6.394 0 0 0-7.118 1.713 6.494 6.494 0 0 0-.938 7.382 35.947 35.947 0 0 0 1.75 3.003c8.403 12.927 22.53 16.385 26.658 17.137a43.537 43.537 0 0 0 29.815-5.669 45.077 45.077 0 0 0 22.95 6.63 39.423 39.423 0 0 0 9.287-1.109c3.711-.898 16.432-4.777 24.287-17.004a36.967 36.967 0 0 0 1.732-2.996 6.495 6.495 0 0 0-.948-7.37 6.393 6.393 0 0 0-7.113-1.712Zm.442 8.293c-6.45 10.038-16.974 13.242-20.046 13.986-14.597 3.53-26.328-4.159-28.533-5.735a3.5 3.5 0 0 0-4.032-.03c-2.857 1.982-13.224 8.26-26.587 5.83-3.432-.625-15.167-3.487-22.044-14.066q-.408-.63-.788-1.287a23.847 23.847 0 0 0 11.06 1.122c4.554-.66 7.527-2.6 10.15-4.312a26.845 26.845 0 0 1 5.53-3.001 22.72 22.72 0 0 1 12.301-.615 16.167 16.167 0 0 0 24.764-.003 22.719 22.719 0 0 1 12.283.618 26.845 26.845 0 0 1 5.53 3.001c2.622 1.712 5.596 3.652 10.149 4.312a23.859 23.859 0 0 0 11.05-1.118q-.38.663-.787 1.298ZM235 386a14 14 0 1 0 14 14 14.016 14.016 0 0 0-14-14Zm0 21a7 7 0 1 1 7-7 7.008 7.008 0 0 1-7 7Zm155.081-74.352-57.481-15.7v-39.531a88.217 88.217 0 0 0 7.41-35.498v-8.098a30.925 30.925 0 0 0 0-61.837V116.99a.499.499 0 0 1 .353-.466 52.927 52.927 0 0 0 34.957-49.865c-.085-28.113-22.994-51.722-51.068-52.627a52.838 52.838 0 0 0-24.943 5.341 58.096 58.096 0 0 0-86.613-.006 52.815 52.815 0 1 0-40.259 97.431.526.526 0 0 1 .373.482v33.531l-.001.01v21.163a30.925 30.925 0 0 0 0 61.837v8.098a88.322 88.322 0 0 0 6.591 33.617v41.412l-57.481 15.7a103.733 103.733 0 0 0-76.23 99.843V508.5a3.5 3.5 0 0 0 7 0v-76.009a96.717 96.717 0 0 1 71.074-93.09l58.847-16.073 65.006 29.87-47.339 21.75a18.55 18.55 0 0 0-10.777 16.81V508.5a3.5 3.5 0 0 0 7 0V391.758a11.532 11.532 0 0 1 6.7-10.45l54.154-24.88.022-.01.07-.033.015-.005 21.11-9.7 50.825-23.35 58.841 16.071a96.717 96.717 0 0 1 71.075 93.09V508.5a3.5 3.5 0 0 0 7 0v-76.009a103.733 103.733 0 0 0-76.231-99.843Zm-50.07-153.664a23.927 23.927 0 0 1 0 47.837Zm-167.202 47.837a23.927 23.927 0 0 1 0-47.837Zm160.202-14.24h-.501a6.508 6.508 0 0 1-6.5-6.5v-30.76h7ZM179.81 168.32v-14h153.2v14Zm7 7v30.76a6.508 6.508 0 0 1-6.5 6.5h-.501v-37.26Zm-12.101-65.143a45.81 45.81 0 1 1 33.518-85.16 57.857 57.857 0 0 0-10.425 33.181 3.5 3.5 0 0 0 7 0 51.198 51.198 0 1 1 102.396 0 3.5 3.5 0 0 0 7 0 57.857 57.857 0 0 0-10.42-33.175 45.808 45.808 0 1 1 34.227 84.91 7.516 7.516 0 0 0-4.995 7.057v30.33h-153.2v-30.04a7.532 7.532 0 0 0-5.101-7.103ZM252.5 347.74l-66.1-30.374v-28.323a89.12 89.12 0 0 0 12.324 15.43 48.961 48.961 0 0 0 34.844 14.43H252.5Zm73.1-30.374-53.735 24.692-12.365 5.68v-28.835h19.751a48.961 48.961 0 0 0 34.845-14.43 89.258 89.258 0 0 0 11.504-14.138Zm.473-42.503a3.473 3.473 0 0 0-.283.637 81.426 81.426 0 0 1-16.644 24.022 42.006 42.006 0 0 1-29.895 12.38h-23.222L256 311.9c-.01 0-.019.003-.029.003h-22.403a42.006 42.006 0 0 1-29.895-12.381 81.346 81.346 0 0 1-17.43-25.794 3.472 3.472 0 0 0-.34-.789 81.33 81.33 0 0 1-6.094-31.02V219.58h.5a13.515 13.515 0 0 0 13.5-13.5v-30.76h125.2v30.76a13.515 13.515 0 0 0 13.5 13.5h.502v22.339a81.222 81.222 0 0 1-6.938 32.944Zm-205.47 156.963a3.5 3.5 0 0 0-3.5 3.5V508.5a3.5 3.5 0 0 0 7 0v-73.174a3.5 3.5 0 0 0-3.5-3.5ZM235 435a14 14 0 1 0 14 14 14.016 14.016 0 0 0-14-14Zm0 21a7 7 0 1 1 7-7 7.008 7.008 0 0 1-7 7Zm0 28a14 14 0 1 0 14 14 14.016 14.016 0 0 0-14-14Zm0 21a7 7 0 1 1 7-7 7.008 7.008 0 0 1-7 7Zm0-369.547a3.5 3.5 0 0 0 3.5-3.5V94.66a3.5 3.5 0 0 0-7 0v37.292a3.5 3.5 0 0 0 3.5 3.5Zm45.925 52.857a27.146 27.146 0 0 1 9.66-2.038 27.464 27.464 0 0 1 11.043 2.038 3.5 3.5 0 0 0 2.656-6.477 34.205 34.205 0 0 0-26.017.001 3.5 3.5 0 0 0 2.658 6.476Zm6.85 7.037v7.433a3.5 3.5 0 0 0 7 0v-7.433a3.5 3.5 0 0 0-7 0ZM277 135.453a3.5 3.5 0 0 0 3.5-3.5V94.66a3.5 3.5 0 0 0-7 0v37.292a3.5 3.5 0 0 0 3.5 3.5Zm-21 0a3.5 3.5 0 0 0 3.5-3.5V94.66a3.5 3.5 0 0 0-7 0v37.292a3.5 3.5 0 0 0 3.5 3.5Zm-44.808 52.857a27.144 27.144 0 0 1 9.662-2.038 27.474 27.474 0 0 1 11.042 2.038 3.5 3.5 0 0 0 2.656-6.477 34.205 34.205 0 0 0-26.018.001 3.5 3.5 0 1 0 2.658 6.476ZM291 435a14 14 0 1 0 14 14 14.016 14.016 0 0 0-14-14Zm0 21a7 7 0 1 1 7-7 7.008 7.008 0 0 1-7 7Zm-72.956-260.653v7.433a3.5 3.5 0 0 0 7 0v-7.433a3.5 3.5 0 0 0-7 0ZM291 386a14 14 0 1 0 14 14 14.016 14.016 0 0 0-14-14Zm0 21a7 7 0 1 1 7-7 7.008 7.008 0 0 1-7 7Zm100.396 24.826a3.5 3.5 0 0 0-3.5 3.5V508.5a3.5 3.5 0 0 0 7 0v-73.174a3.5 3.5 0 0 0-3.5-3.5Z"></path>
</svg>
